<?xml version="1.0" encoding="UTF-8" standalone="no"?>
<!-- Created with Inkscape (http://www.inkscape.org/) -->

<svg
   xmlns:dc="http://purl.org/dc/elements/1.1/"
   xmlns:cc="http://creativecommons.org/ns#"
   xmlns:rdf="http://www.w3.org/1999/02/22-rdf-syntax-ns#"
   xmlns:svg="http://www.w3.org/2000/svg"
   xmlns="http://www.w3.org/2000/svg"
   xmlns:sodipodi="http://sodipodi.sourceforge.net/DTD/sodipodi-0.dtd"
   xmlns:inkscape="http://www.inkscape.org/namespaces/inkscape"
   width="101.56497"
   height="17.938667"
   viewBox="0 0 26.8724 4.7462722"
   version="1.1"
   id="svg8"
   inkscape:version="0.92.4 5da689c313, 2019-01-14"
   sodipodi:docname="trading-post.svg">
  <defs
     id="defs2" />
  <sodipodi:namedview
     id="base"
     pagecolor="#ffffff"
     bordercolor="#666666"
     borderopacity="1.0"
     inkscape:pageopacity="0.0"
     inkscape:pageshadow="2"
     inkscape:zoom="7.9195959"
     inkscape:cx="67.649782"
     inkscape:cy="4.8430199"
     inkscape:document-units="mm"
     inkscape:current-layer="text12"
     showgrid="false"
     units="px"
     fit-margin-top="0"
     fit-margin-left="0"
     fit-margin-right="0"
     fit-margin-bottom="0"
     inkscape:pagecheckerboard="true"
     inkscape:window-width="1276"
     inkscape:window-height="1381"
     inkscape:window-x="1282"
     inkscape:window-y="57"
     inkscape:window-maximized="1" />
  <metadata
     id="metadata5">
    <rdf:RDF>
      <cc:Work
         rdf:about="">
        <dc:format>image/svg+xml</dc:format>
        <dc:type
           rdf:resource="http://purl.org/dc/dcmitype/StillImage" />
        <dc:title></dc:title>
      </cc:Work>
    </rdf:RDF>
  </metadata>
  <g
     inkscape:label="Layer 1"
     inkscape:groupmode="layer"
     id="layer1"
     transform="translate(-0.67137929,-292.16979)">
    <g
       aria-label="TradingPost"
       style="font-style:normal;font-weight:normal;font-size:10.58333302px;line-height:1;font-family:sans-serif;letter-spacing:0px;word-spacing:0px;fill:#000000;fill-opacity:1;stroke:none;stroke-width:0.26458332"
       id="text12">
      <path
         d="m 1.4714793,295.86407 v -3.27448 H 0.67137929 v -0.3556 H 2.6666905 v 0.3556 H 1.8665904 v 3.27448 z"
         style="line-height:1em;fill:#ffffff"
         id="path18" />
      <path
         d="m 3.4964143,295.86407 v -2.61761 h 0.3951111 v 0.49389 q 0.039511,-0.10865 0.098778,-0.21237 0.083961,-0.13829 0.2271889,-0.22719 0.1432278,-0.0938 0.3062111,-0.0938 0.1432278,0 0.2716389,0.0642 0.13335,0.0593 0.22225,0.17286 0.093839,0.10865 0.13335,0.24694 l -0.3704167,0.16793 q -0.029633,-0.11854 -0.1234722,-0.20744 -0.093839,-0.0889 -0.2173111,-0.0889 -0.1481667,0 -0.2716389,0.0988 -0.1185334,0.0988 -0.1778,0.23707 -0.054328,0.13829 -0.079022,0.28645 -0.019756,0.14323 -0.019756,0.2914 v 1.38782 z"
         style="line-height:1em;fill:#ffffff"
         id="path20" />
      <path
         d="m 6.3905937,295.90359 q -0.1531056,0 -0.3012722,-0.0494 -0.1481667,-0.0494 -0.2568223,-0.16299 -0.1086555,-0.11359 -0.1580444,-0.26176 -0.04445,-0.14816 -0.04445,-0.30127 0,-0.15311 0.054328,-0.29633 0.054328,-0.14817 0.1679222,-0.25189 0.1135944,-0.10865 0.2518833,-0.16792 0.1432278,-0.0642 0.2913945,-0.0889 0.1531056,-0.0247 0.3062111,-0.0247 h 0.4494389 v -0.22719 q 0,-0.10866 -0.039511,-0.20744 -0.039511,-0.10371 -0.1234722,-0.17286 -0.079022,-0.0691 -0.1827389,-0.0988 -0.1037167,-0.0296 -0.2123722,-0.0296 -0.1234723,0 -0.2469445,0.0445 -0.1234722,0.0395 -0.2074333,0.14323 -0.083961,0.10372 -0.098778,0.22719 l -0.3802945,-0.0889 q 0.029633,-0.20743 0.1728611,-0.37536 0.1432278,-0.17286 0.3457223,-0.23706 0.2074333,-0.0691 0.4148667,-0.0691 0.1827388,0 0.3605389,0.0494 0.1778,0.0494 0.3160889,0.16792 0.1432277,0.11854 0.2074333,0.2914 0.069144,0.17286 0.069144,0.3556 v 1.79281 H 7.1511826 v -0.37041 q -0.034572,0.0593 -0.079022,0.11359 -0.1234722,0.14817 -0.3062111,0.22225 -0.1827389,0.0741 -0.3753556,0.0741 z m -0.1185333,-0.39512 q 0.1185333,0.0395 0.2420055,0.0395 0.1284111,0 0.2518834,-0.0445 0.1234722,-0.0444 0.2123722,-0.13829 0.093839,-0.0988 0.13335,-0.22225 0.039511,-0.12841 0.039511,-0.25683 v -0.23212 H 6.7017437 q -0.1135944,0 -0.2321278,0.0198 -0.1135944,0.0198 -0.2173111,0.079 -0.1037167,0.0543 -0.1679222,0.15805 -0.059267,0.0988 -0.059267,0.21731 0,0.11853 0.064206,0.22719 0.069144,0.10865 0.1827389,0.1531 z"
         style="line-height:1em;fill:#ffffff"
         id="path22" />
      <path
         d="m 8.9538678,295.90359 q -0.2024944,0 -0.3802944,-0.0938 -0.1778,-0.0988 -0.2864556,-0.27164 -0.1037167,-0.17286 -0.1481667,-0.36548 -0.039511,-0.19756 -0.039511,-0.39511 v -0.4445 q 0,-0.19756 0.039511,-0.39017 0.04445,-0.19756 0.1481667,-0.37042 0.1086556,-0.17286 0.2864556,-0.2667 0.1778,-0.0988 0.3802944,-0.0988 0.1531056,0 0.3012722,0.0642 0.1481667,0.0593 0.2518834,0.18274 0.064205,0.079 0.1135944,0.16792 v -1.38783 h 0.3951112 v 3.63008 H 9.6206178 v -0.37535 q -0.049389,0.0889 -0.1135944,0.16792 -0.1037167,0.12347 -0.2518834,0.18768 -0.1481666,0.0593 -0.3012722,0.0593 z m 0.1185333,-0.3556 q 0.1333501,0 0.2518834,-0.0692 0.1185333,-0.0691 0.1827389,-0.18768 0.064205,-0.11853 0.0889,-0.24694 0.024694,-0.13335 0.024694,-0.2667 v -0.4445 q 0,-0.13335 -0.024694,-0.26176 -0.024695,-0.13335 -0.0889,-0.25189 -0.064206,-0.11853 -0.1827389,-0.18767 -0.1185333,-0.0692 -0.2518834,-0.0692 -0.13335,0 -0.2568222,0.0692 -0.1234722,0.0642 -0.1975555,0.18274 -0.069145,0.11853 -0.098778,0.25188 -0.024694,0.13335 -0.024694,0.2667 v 0.4445 q 0,0.13335 0.024694,0.2667 0.029633,0.13335 0.098778,0.25188 0.074083,0.11854 0.1975555,0.18768 0.1234722,0.0642 0.2568222,0.0642 z m 0.6963834,-0.74578 v -0.0197 z"
         style="line-height:1em;fill:#ffffff"
         id="path24" />
      <path
         d="m 10.682469,295.86407 v -0.3556 h 0.701322 v -1.90641 h -0.632177 v -0.3556 h 1.027289 v 2.26201 h 0.632177 v 0.3556 z m 0.864306,-3.07692 q -0.08396,0 -0.162984,-0.0346 -0.07408,-0.0346 -0.113594,-0.10865 -0.03457,-0.079 -0.02963,-0.16298 -0.0049,-0.084 0.02963,-0.15805 0.03951,-0.079 0.113594,-0.11359 0.07902,-0.0395 0.162984,-0.0395 0.08396,0 0.158044,0.0395 0.07902,0.0346 0.113595,0.11359 0.03457,0.0741 0.03951,0.15805 -0.0049,0.084 -0.03951,0.16298 -0.03457,0.0741 -0.113595,0.10865 -0.07408,0.0346 -0.158044,0.0346 z"
         style="line-height:1em;fill:#ffffff"
         id="path26" />
      <path
         d="m 13.077821,295.86407 v -2.61761 h 0.395111 v 0.37536 q 0.04939,-0.0889 0.113594,-0.16792 0.103717,-0.11854 0.246945,-0.18274 0.148166,-0.0642 0.306211,-0.0642 0.153105,0 0.301272,0.0642 0.148167,0.0642 0.246944,0.18768 0.103717,0.11853 0.162984,0.2667 0.05927,0.14322 0.07902,0.29633 0.02469,0.1531 0.02469,0.31115 v 1.53105 h -0.395111 v -1.53105 q 0,-0.13335 -0.02469,-0.26176 -0.0247,-0.13335 -0.0889,-0.24695 -0.06421,-0.11853 -0.182739,-0.18767 -0.113594,-0.0741 -0.246944,-0.0741 -0.13335,0 -0.251884,0.0741 -0.113594,0.0691 -0.1778,0.18767 -0.0642,0.1136 -0.0889,0.24695 -0.02469,0.12841 -0.02469,0.26176 v 1.53105 z"
         style="line-height:1em;fill:#ffffff"
         id="path28" />
      <path
         d="m 16.485645,296.91606 q -0.182739,0 -0.365478,-0.0445 -0.182738,-0.0395 -0.340783,-0.14817 -0.153105,-0.10865 -0.237067,-0.28152 -0.07902,-0.16792 -0.07902,-0.3556 0,-0.16298 0.06421,-0.31115 0.06914,-0.1531 0.202494,-0.24694 l 0.01976,-0.0148 q -0.04445,-0.0494 -0.07902,-0.10865 -0.06421,-0.11854 -0.06421,-0.25189 0,-0.16792 0.09878,-0.31608 0.04939,-0.0642 0.108655,-0.11854 l -0.03457,-0.0247 q -0.143228,-0.11854 -0.207433,-0.28646 -0.06421,-0.17286 -0.06421,-0.35066 0,-0.1778 0.06421,-0.34572 0.0642,-0.17286 0.202494,-0.28646 0.143228,-0.11853 0.316089,-0.16792 0.172861,-0.0494 0.350661,-0.0494 0.153106,0 0.306211,0.0346 l 0.0099,0.005 h 0.780345 v 0.3556 l -0.286456,-0.01 q 0.03457,0.0543 0.05927,0.11853 0.06421,0.16792 0.06421,0.34572 0,0.1778 -0.06421,0.35066 -0.06421,0.16792 -0.207434,0.28646 -0.138289,0.11853 -0.31115,0.16792 -0.172861,0.0445 -0.350661,0.0445 -0.172861,0 -0.340783,-0.0445 -0.04939,0.0296 -0.0889,0.079 -0.05433,0.0642 -0.05433,0.14323 0,0.0938 0.06421,0.16298 0.06914,0.0691 0.162983,0.084 0.07408,0.0148 0.153106,0.0148 h 0.02469 0.246944 q 0.162984,0 0.325967,0.0395 0.162983,0.0395 0.301272,0.13829 0.138289,0.0938 0.207434,0.25188 0.07408,0.15311 0.07408,0.31609 0,0.18768 -0.0889,0.3556 -0.08396,0.17286 -0.242006,0.27658 -0.153105,0.10866 -0.335844,0.14817 -0.1778,0.0445 -0.365478,0.0445 z m 0,-0.3556 q 0.148167,0 0.291395,-0.0444 0.143227,-0.0395 0.242005,-0.15805 0.103717,-0.11853 0.103717,-0.26176 0,-0.0938 -0.04445,-0.1778 -0.04445,-0.084 -0.123472,-0.12841 -0.07902,-0.0494 -0.167923,-0.0691 -0.0889,-0.0198 -0.1778,-0.0198 h -0.246944 -0.0049 -0.01975 -0.01482 q -0.103717,0.005 -0.207433,0.0395 -0.113595,0.0346 -0.187678,0.13335 -0.06914,0.0988 -0.06914,0.21237 0,0.14817 0.09384,0.2667 0.09878,0.12348 0.242006,0.16299 0.143228,0.0444 0.291394,0.0444 z m -0.13335,-0.85937 h -0.0049 -0.0099 z m 0.0889,-1.15076 q 0.138289,0 0.2667,-0.0543 0.13335,-0.0543 0.202495,-0.1778 0.06914,-0.12347 0.06914,-0.26176 0,-0.13829 -0.06914,-0.26176 -0.06914,-0.12347 -0.202495,-0.1778 -0.103716,-0.0444 -0.217311,-0.0543 h -0.04939 q -0.138289,0 -0.271639,0.0543 -0.128411,0.0543 -0.197555,0.1778 -0.06915,0.12347 -0.06915,0.26176 0,0.13829 0.06915,0.26176 0.06914,0.12347 0.197555,0.1778 0.13335,0.0543 0.271639,0.0543 z"
         style="line-height:1em;fill:#ffffff"
         id="path30" />
      <path
         d="m 18.090774,295.86407 v -3.63008 h 0.869245 q 0.202494,0 0.395111,0.0691 0.192617,0.0691 0.325967,0.22225 0.138289,0.1531 0.192616,0.35066 0.05927,0.19261 0.05927,0.39511 0,0.19755 -0.05927,0.39511 -0.05433,0.19262 -0.192616,0.34572 -0.13335,0.15311 -0.325967,0.22719 -0.192617,0.0691 -0.395111,0.0691 h -0.474134 v 1.55575 z m 0.869245,-1.91135 q 0.128411,0 0.242005,-0.0494 0.118534,-0.0543 0.197556,-0.15805 0.07902,-0.10372 0.108656,-0.22719 0.02963,-0.12347 0.02963,-0.24694 0,-0.12841 -0.02963,-0.25189 -0.02963,-0.12347 -0.108656,-0.22225 -0.07902,-0.10371 -0.197556,-0.1531 -0.113594,-0.0543 -0.242005,-0.0543 h -0.474134 v 1.36313 z"
         style="line-height:1em;fill:#f6931d;fill-opacity:1"
         id="path32" />
      <path
         d="m 21.424515,295.90359 q -0.212373,0 -0.409928,-0.084 -0.197556,-0.084 -0.330906,-0.25188 -0.128411,-0.16792 -0.182739,-0.37042 -0.05433,-0.20743 -0.05433,-0.4198 v -0.4445 q 0,-0.21237 0.05433,-0.41487 0.05433,-0.20743 0.182739,-0.37535 0.13335,-0.16793 0.330906,-0.25189 0.197555,-0.084 0.409928,-0.084 0.212372,0 0.409927,0.084 0.197556,0.084 0.325967,0.25189 0.13335,0.16792 0.187678,0.37535 0.05433,0.2025 0.05433,0.41487 v 0.4445 q 0,0.21237 -0.05433,0.4198 -0.05433,0.2025 -0.187678,0.37042 -0.128411,0.16792 -0.325967,0.25188 -0.197555,0.084 -0.409927,0.084 z m 0,-0.3556 q 0.138289,0 0.256822,-0.0642 0.123472,-0.0691 0.197555,-0.18274 0.07408,-0.11853 0.09878,-0.25188 0.02963,-0.13335 0.02963,-0.27164 v -0.4445 q 0,-0.13829 -0.02963,-0.27164 -0.02469,-0.13335 -0.09878,-0.24694 -0.07408,-0.11854 -0.197555,-0.18274 -0.118533,-0.0692 -0.256822,-0.0692 -0.138289,0 -0.261761,0.0692 -0.118534,0.0642 -0.192617,0.18274 -0.07408,0.11359 -0.103717,0.24694 -0.02469,0.13335 -0.02469,0.27164 v 0.4445 q 0,0.13829 0.02469,0.27164 0.02963,0.13335 0.103717,0.25188 0.07408,0.1136 0.192617,0.18274 0.123472,0.0642 0.261761,0.0642 z"
         style="line-height:1em;fill:#f6931d;fill-opacity:1"
         id="path34" />
      <path
         d="m 23.884072,295.90359 q -0.197556,0 -0.395111,-0.0543 -0.192617,-0.0543 -0.340784,-0.19756 -0.148166,-0.14323 -0.207433,-0.3309 l 0.370417,-0.11854 q 0.03951,0.1136 0.128411,0.19756 0.0889,0.084 0.202494,0.11853 0.118533,0.0296 0.242006,0.0296 0.123472,0 0.246944,-0.0296 0.123472,-0.0296 0.217311,-0.12347 0.09384,-0.0988 0.09384,-0.22225 0,-0.18274 -0.162983,-0.29139 -0.158045,-0.1136 -0.340784,-0.12348 -0.1778,-0.0148 -0.3556,-0.0494 -0.1778,-0.0395 -0.325966,-0.14816 -0.148167,-0.10866 -0.227189,-0.27164 -0.07902,-0.16792 -0.07902,-0.35066 0,-0.16792 0.07902,-0.32103 0.08396,-0.15311 0.227189,-0.24694 0.148166,-0.0938 0.31115,-0.12842 0.167922,-0.0346 0.335844,-0.0346 0.197556,0 0.390172,0.0543 0.197556,0.0543 0.345723,0.19756 0.148166,0.14322 0.207433,0.3309 l -0.370417,0.11853 q -0.03951,-0.11359 -0.128411,-0.19755 -0.0889,-0.084 -0.207433,-0.1136 -0.113595,-0.0346 -0.237067,-0.0346 -0.123472,0 -0.246944,0.0296 -0.123472,0.0296 -0.217311,0.12841 -0.09384,0.0938 -0.09384,0.21731 0,0.18274 0.158044,0.29633 0.162984,0.10866 0.340784,0.12347 0.182738,0.01 0.360538,0.0494 0.1778,0.0346 0.325967,0.14323 0.148167,0.10866 0.227189,0.27658 0.07902,0.16298 0.07902,0.34572 0,0.16792 -0.08396,0.32103 -0.07902,0.1531 -0.227189,0.24694 -0.143228,0.0938 -0.31115,0.12841 -0.162983,0.0346 -0.330905,0.0346 z"
         style="line-height:1em;fill:#f6931d;fill-opacity:1"
         id="path36" />
      <path
         d="m 26.73874,295.90359 q -0.182739,0 -0.3556,-0.079 -0.167923,-0.079 -0.276578,-0.22719 -0.103717,-0.1531 -0.148167,-0.3309 -0.03951,-0.1778 -0.03951,-0.36054 v -1.30387 h -0.538339 v -0.3556 h 0.538339 v -1.01247 h 0.395111 v 1.01247 h 0.795161 v 0.3556 h -0.795161 v 1.30387 q 0,0.14323 0.02963,0.28646 0.03457,0.13828 0.143227,0.24694 0.108656,0.10866 0.251884,0.10866 0.123472,0 0.22225,-0.084 0.103716,-0.084 0.143228,-0.20249 0.04445,-0.11853 0.05433,-0.24694 l 0.385234,0.084 q -0.01482,0.15804 -0.07408,0.30621 -0.05927,0.14816 -0.167922,0.2667 -0.108655,0.11853 -0.261761,0.1778 -0.148167,0.0543 -0.301272,0.0543 z"
         style="line-height:1em;fill:#f6931d;fill-opacity:1"
         id="path38" />
    </g>
  </g>
</svg>
